<svg width="25" height="26" viewBox="0 0 25 26" fill="none" xmlns="http://www.w3.org/2000/svg">
<circle cx="12.5" cy="13.5" r="12.5" fill="#0DAE0A"/>
<mask id="path-2-inside-1_14_689" fill="white">
<path fill-rule="evenodd" clip-rule="evenodd" d="M19.5226 7.20891C19.9176 7.5321 19.9758 8.1143 19.6527 8.5093L11.8967 17.9887C11.2696 18.7553 10.1497 18.8912 9.35741 18.297L6.36972 16.0562C5.96142 15.75 5.87868 15.1707 6.1849 14.7624C6.49111 14.3542 7.07034 14.2714 7.47863 14.5776L10.4663 16.8184L18.2222 7.33895C18.5454 6.94395 19.1276 6.88573 19.5226 7.20891Z"/>
</mask>
<path fill-rule="evenodd" clip-rule="evenodd" d="M19.5226 7.20891C19.9176 7.5321 19.9758 8.1143 19.6527 8.5093L11.8967 17.9887C11.2696 18.7553 10.1497 18.8912 9.35741 18.297L6.36972 16.0562C5.96142 15.75 5.87868 15.1707 6.1849 14.7624C6.49111 14.3542 7.07034 14.2714 7.47863 14.5776L10.4663 16.8184L18.2222 7.33895C18.5454 6.94395 19.1276 6.88573 19.5226 7.20891Z" fill="white"/>
<path d="M19.6527 8.5093L21.2006 9.77577L19.6527 8.5093ZM19.5226 7.20891L18.2561 8.75683L18.2561 8.75683L19.5226 7.20891ZM11.8967 17.9887L10.3488 16.7223L11.8967 17.9887ZM9.35741 18.297L8.15741 19.897L8.15741 19.897L9.35741 18.297ZM6.36971 16.0562L7.56971 14.4562L7.56971 14.4562L6.36971 16.0562ZM7.47863 14.5776L6.27863 16.1776L6.27863 16.1776L7.47863 14.5776ZM10.4663 16.8184L9.26632 18.4184L10.8001 19.5688L12.0142 18.0849L10.4663 16.8184ZM18.2222 7.33895L19.7701 8.60543L19.7701 8.60543L18.2222 7.33895ZM21.2006 9.77577C22.2232 8.52588 22.039 6.68364 20.7891 5.661L18.2561 8.75683C17.7963 8.38056 17.7285 7.70271 18.1047 7.24282L21.2006 9.77577ZM13.4447 19.2552L21.2006 9.77577L18.1047 7.24282L10.3488 16.7223L13.4447 19.2552ZM8.15741 19.897C9.8071 21.1342 12.1389 20.8512 13.4447 19.2552L10.3488 16.7223C10.4003 16.6593 10.4923 16.6481 10.5574 16.697L8.15741 19.897ZM5.16972 17.6562L8.15741 19.897L10.5574 16.697L7.56971 14.4562L5.16972 17.6562ZM4.58489 13.5624C3.61593 14.8544 3.87777 16.6872 5.16972 17.6562L7.56971 14.4562C8.04508 14.8127 8.14142 15.4871 7.7849 15.9624L4.58489 13.5624ZM8.67863 12.9776C7.38669 12.0087 5.55386 12.2705 4.58489 13.5624L7.7849 15.9624C7.42837 16.4378 6.75399 16.5342 6.27863 16.1776L8.67863 12.9776ZM11.6663 15.2184L8.67863 12.9776L6.27863 16.1776L9.26632 18.4184L11.6663 15.2184ZM16.6743 6.07248L8.91841 15.5519L12.0142 18.0849L19.7701 8.60543L16.6743 6.07248ZM20.7891 5.661C19.5392 4.63836 17.697 4.82259 16.6743 6.07248L19.7701 8.60543C19.3939 9.06532 18.716 9.1331 18.2561 8.75683L20.7891 5.661Z" fill="white" mask="url(#path-2-inside-1_14_689)"/>
</svg>
