<svg width="40" height="40" viewBox="0 0 40 40" fill="none" xmlns="http://www.w3.org/2000/svg">
<path d="M30.1666 20C30.1666 25.6149 25.6148 30.1667 19.9999 30.1667C14.385 30.1667 9.83325 25.6149 9.83325 20C9.83325 14.3851 14.385 9.83337 19.9999 9.83337C25.6148 9.83337 30.1666 14.3851 30.1666 20Z" stroke="white" stroke-width="3"/>
<path d="M6.67605 10.3294C6.91078 9.4534 7.37198 8.65458 8.01328 8.01328C8.65458 7.37198 9.4534 6.91078 10.3294 6.67605" stroke="white" stroke-width="3" stroke-linecap="round"/>
<path d="M33.324 10.3294C33.0892 9.4534 32.628 8.65458 31.9867 8.01328C31.3454 7.37198 30.5466 6.91078 29.6706 6.67605" stroke="white" stroke-width="3" stroke-linecap="round"/>
<path d="M20 13.3334V19.75C20 19.8881 20.1119 20 20.25 20H25" stroke="white" stroke-width="3" stroke-linecap="round"/>
</svg>
