<svg width="30" height="30" viewBox="0 0 30 30" fill="none" xmlns="http://www.w3.org/2000/svg">
<path fill-rule="evenodd" clip-rule="evenodd" d="M15 30C23.2843 30 30 23.2843 30 15C30 11.6988 28.9336 8.64666 27.1264 6.16931L14.6884 19.9893C13.9957 20.759 12.8302 20.8727 12.0018 20.2514L6.0667 15.8001C5.62488 15.4687 5.53534 14.8419 5.8667 14.4001C6.19808 13.9582 6.82488 13.8687 7.26671 14.2001L13.2018 18.6514L25.8293 4.62086C23.0991 1.77303 19.2566 0 15 0C6.71573 0 0 6.71573 0 15C0 23.2843 6.71573 30 15 30Z" fill="white"/>
</svg>
