<svg width="35" height="35" viewBox="0 0 35 35" fill="none" xmlns="http://www.w3.org/2000/svg">
<circle cx="17.5" cy="17.5" r="17.5" fill="#2B2B2B" fill-opacity="0.1"/>
<path d="M24.6459 9.33325H10.3542C9.54196 9.33325 8.763 9.65591 8.18867 10.2302C7.61434 10.8046 7.29169 11.5835 7.29169 12.3958V22.6041C7.29169 23.4163 7.61434 24.1953 8.18867 24.7696C8.763 25.3439 9.54196 25.6666 10.3542 25.6666H24.6459C25.4581 25.6666 26.237 25.3439 26.8114 24.7696C27.3857 24.1953 27.7084 23.4163 27.7084 22.6041V12.3958C27.7084 11.5835 27.3857 10.8046 26.8114 10.2302C26.237 9.65591 25.4581 9.33325 24.6459 9.33325V9.33325ZM10.3542 11.3749H24.6459C24.9166 11.3749 25.1762 11.4825 25.3677 11.6739C25.5591 11.8654 25.6667 12.125 25.6667 12.3958L17.5 17.3774L9.33335 12.3958C9.33335 12.125 9.44091 11.8654 9.63235 11.6739C9.82379 11.4825 10.0834 11.3749 10.3542 11.3749V11.3749ZM25.6667 22.6041C25.6667 22.8748 25.5591 23.1345 25.3677 23.3259C25.1762 23.5174 24.9166 23.6249 24.6459 23.6249H10.3542C10.0834 23.6249 9.82379 23.5174 9.63235 23.3259C9.44091 23.1345 9.33335 22.8748 9.33335 22.6041V14.7233L16.9692 19.3885C17.1244 19.4781 17.3004 19.5252 17.4796 19.5252C17.6588 19.5252 17.8348 19.4781 17.99 19.3885L25.6667 14.7233V22.6041Z" fill="black" fill-opacity="0.38"/>
</svg>
