<svg width="40" height="36" viewBox="0 0 40 36" fill="none" xmlns="http://www.w3.org/2000/svg">
<path d="M21.9526 4.875H15C11.8573 4.875 10.286 4.875 9.30965 5.72927C8.33334 6.58354 8.33334 7.95847 8.33334 10.7083V25.2917C8.33334 28.0415 8.33334 29.4165 9.30965 30.2707C10.286 31.125 11.8573 31.125 15 31.125H25C28.1427 31.125 29.714 31.125 30.6904 30.2707C31.6667 29.4165 31.6667 28.0415 31.6667 25.2917V13.3748C31.6667 12.7787 31.6667 12.4806 31.5398 12.2126C31.4129 11.9446 31.1721 11.7339 30.6904 11.3124L24.3096 5.72927C23.8279 5.30777 23.5871 5.09702 23.2808 4.98601C22.9745 4.875 22.6339 4.875 21.9526 4.875Z" stroke="white" stroke-width="3"/>
<path d="M15 19.4584L25 19.4584" stroke="white" stroke-width="3" stroke-linecap="round"/>
<path d="M15 25.2916L21.6667 25.2916" stroke="white" stroke-width="3" stroke-linecap="round"/>
<path d="M21.6667 4.875V10.7083C21.6667 12.0833 21.6667 12.7707 22.1548 13.1979C22.643 13.625 23.4287 13.625 25 13.625H31.6667" stroke="white" stroke-width="3"/>
</svg>
