<svg width="36" height="35" viewBox="0 0 36 35" fill="none" xmlns="http://www.w3.org/2000/svg">
<path fill-rule="evenodd" clip-rule="evenodd" d="M35.2692 14.4996V19.5106L32.1586 19.5362C31.856 21.8678 30.9691 24.0865 29.5793 25.9884L32.2359 28.7222L28.594 32.2098L25.9786 29.512C24.366 30.6096 22.5461 31.3703 20.6291 31.7482V35H15.5944V31.8252C13.4443 31.5146 11.3951 30.7161 9.60527 29.4915L7.41803 31.6508L3.85346 28.0605L6.02522 25.9423C4.65791 24.0397 3.78594 21.83 3.4872 19.5106H0V14.4996H3.611C4.05866 12.5053 4.93893 10.6324 6.19029 9.01158L4.17329 6.93435L7.81524 3.44666L9.87867 5.58543C11.5847 4.45803 13.5241 3.72703 15.5531 3.44666V0H20.5879V3.52359C22.6362 3.92943 24.5719 4.77102 26.2623 5.99062L28.8416 3.46717L32.3855 7.02667L29.8062 9.59115C30.8175 11.0794 31.5352 12.745 31.9213 14.4996H35.2692ZM9.29049 17.659C9.28479 22.3244 13.084 26.111 17.7763 26.1167C20.0309 26.1235 22.1954 25.2374 23.7916 23.6543C25.3878 22.0711 26.2842 19.9212 26.2828 17.6795C26.2885 13.0142 22.4893 9.22755 17.797 9.22189C13.1047 9.21622 9.29619 12.9937 9.29049 17.659Z" fill="#1E1E1E"/>
</svg>
