<svg width="22" height="22" viewBox="0 0 22 22" fill="none" xmlns="http://www.w3.org/2000/svg">
<path fill-rule="evenodd" clip-rule="evenodd" d="M22 9.04445V12.1702L20.0597 12.1862C19.8709 13.6406 19.3177 15.0245 18.4508 16.2109L20.1079 17.9161L17.8362 20.0917L16.2048 18.4088C15.1988 19.0934 14.0637 19.568 12.8679 19.8037V21.8321H9.72737V19.8517C8.38623 19.658 7.10794 19.1599 5.99152 18.396L4.62718 19.7429L2.40369 17.5034L3.75837 16.1821C2.90549 14.9953 2.36157 13.617 2.17522 12.1702H0V9.04445H2.25245C2.53169 7.80051 3.08078 6.63221 3.86134 5.62119L2.60319 4.32547L4.87495 2.14994L6.16206 3.48405C7.22623 2.78081 8.436 2.32483 9.70162 2.14994V0H12.8422V2.19793C14.1199 2.45108 15.3273 2.97604 16.3817 3.73679L17.9906 2.16273L20.2013 4.38306L18.5924 5.98271C19.2232 6.91102 19.6709 7.95002 19.9117 9.04445H22ZM5.79516 11.0152C5.7916 13.9254 8.16147 16.2873 11.0884 16.2909C12.4948 16.2951 13.8449 15.7424 14.8406 14.7549C15.8362 13.7674 16.3954 12.4263 16.3945 11.028C16.3981 8.11789 14.0282 5.7559 11.1013 5.75236C8.17434 5.74883 5.79871 8.10509 5.79516 11.0152Z" fill="#757575"/>
</svg>
