<svg width="500" height="56" viewBox="0 0 500 56" fill="none" xmlns="http://www.w3.org/2000/svg">
<circle cx="29.5" cy="27.5" r="17.5" fill="#2B2B2B" fill-opacity="0.1"/>
<path d="M29.5 28.4584C29.2082 28.455 28.9224 28.5411 28.681 28.705C28.4396 28.8689 28.2543 29.1029 28.1499 29.3754C28.0455 29.6478 28.0271 29.9457 28.0971 30.229C28.1672 30.5122 28.3223 30.7672 28.5416 30.9597V32.2917C28.5416 32.5459 28.6426 32.7897 28.8223 32.9694C29.0021 33.1491 29.2458 33.2501 29.5 33.2501C29.7541 33.2501 29.9979 33.1491 30.1776 32.9694C30.3573 32.7897 30.4583 32.5459 30.4583 32.2917V30.9597C30.6777 30.7672 30.8328 30.5122 30.9028 30.229C30.9729 29.9457 30.9545 29.6478 30.8501 29.3754C30.7457 29.1029 30.5603 28.8689 30.3189 28.705C30.0776 28.5411 29.7917 28.455 29.5 28.4584V28.4584ZM34.2916 24.6251V22.7084C34.2916 21.4376 33.7868 20.2188 32.8882 19.3202C31.9896 18.4216 30.7708 17.9167 29.5 17.9167C28.2292 17.9167 27.0104 18.4216 26.1118 19.3202C25.2131 20.2188 24.7083 21.4376 24.7083 22.7084V24.6251C23.9458 24.6251 23.2145 24.928 22.6754 25.4671C22.1362 26.0063 21.8333 26.7376 21.8333 27.5001V34.2084C21.8333 34.9709 22.1362 35.7022 22.6754 36.2413C23.2145 36.7805 23.9458 37.0834 24.7083 37.0834H34.2916C35.0541 37.0834 35.7854 36.7805 36.3246 36.2413C36.8637 35.7022 37.1666 34.9709 37.1666 34.2084V27.5001C37.1666 26.7376 36.8637 26.0063 36.3246 25.4671C35.7854 24.928 35.0541 24.6251 34.2916 24.6251ZM26.625 22.7084C26.625 21.9459 26.9279 21.2147 27.467 20.6755C28.0062 20.1363 28.7375 19.8334 29.5 19.8334C30.2625 19.8334 30.9937 20.1363 31.5329 20.6755C32.0721 21.2147 32.375 21.9459 32.375 22.7084V24.6251H26.625V22.7084ZM35.25 34.2084C35.25 34.4626 35.149 34.7063 34.9693 34.8861C34.7896 35.0658 34.5458 35.1667 34.2916 35.1667H24.7083C24.4541 35.1667 24.2104 35.0658 24.0307 34.8861C23.8509 34.7063 23.75 34.4626 23.75 34.2084V27.5001C23.75 27.2459 23.8509 27.0022 24.0307 26.8224C24.2104 26.6427 24.4541 26.5417 24.7083 26.5417H34.2916C34.5458 26.5417 34.7896 26.6427 34.9693 26.8224C35.149 27.0022 35.25 27.2459 35.25 27.5001V34.2084Z" fill="black" fill-opacity="0.38"/>
<rect x="0.5" y="0.5" width="499" height="55" rx="11.5" stroke="#1E1E1E" stroke-opacity="0.85"/>
</svg>
